<svg xmlns:dc="http://purl.org/dc/elements/1.1/" xmlns:cc="http://creativecommons.org/ns#" xmlns:rdf="http://www.w3.org/1999/02/22-rdf-syntax-ns#" xmlns:svg="http://www.w3.org/2000/svg" xmlns="http://www.w3.org/2000/svg" xmlns:sodipodi="http://sodipodi.sourceforge.net/DTD/sodipodi-0.dtd" xmlns:inkscape="http://www.inkscape.org/namespaces/inkscape" viewBox="0 0 100 125" version="1.1" x="0px" y="0px"><g transform="translate(0,-952.36216)"><path style="opacity:1;fill:#000000;fill-opacity:1;stroke:none;stroke-width:5;stroke-linecap:butt;stroke-linejoin:miter;stroke-miterlimit:4;stroke-dasharray:none;stroke-dashoffset:0;stroke-opacity:1" d="m 32.675,957.36216 -17.319,29.9961 17.319,29.99424 17.326,30.0097 17.324,-30.0097 17.318,-29.99424 -17.318,-29.9961 -34.637,0 -0.01,0 z m 4.753,8.7559 24.752,0 12.377,21.4277 -12.377,21.42584 -24.752,0 -12.375,-21.42584 12.375,-21.4277 z"/><path style="color:#000000;font-style:normal;font-variant:normal;font-weight:normal;font-stretch:normal;font-size:medium;line-height:normal;font-family:sans-serif;text-indent:0;text-align:start;text-decoration:none;text-decoration-line:none;text-decoration-style:solid;text-decoration-color:#000000;letter-spacing:normal;word-spacing:normal;text-transform:none;direction:ltr;block-progression:tb;writing-mode:lr-tb;baseline-shift:baseline;text-anchor:start;white-space:normal;clip-rule:nonzero;display:inline;overflow:visible;visibility:visible;opacity:1;isolation:auto;mix-blend-mode:normal;color-interpolation:sRGB;color-interpolation-filters:linearRGB;solid-color:#000000;solid-opacity:1;fill:#000000;fill-opacity:1;fill-rule:nonzero;stroke:none;stroke-width:1.5;stroke-linecap:butt;stroke-linejoin:miter;stroke-miterlimit:4;stroke-dasharray:none;stroke-dashoffset:0;stroke-opacity:1;color-rendering:auto;image-rendering:auto;shape-rendering:auto;text-rendering:auto;enable-background:accumulate" d="m 47.982,973.0712 c 0,1.6712 0,3.3425 0,5.0137 l -3.555,2.1015 0,6.2012 c 2.435,1.5241 4.984,3.0458 7.107,4.3047 l 0,2.1133 -1.713,1.0137 -2.431,-1.4395 -3.713,2.0801 4.305,2.5469 0,5.0117 3.677,0 0,-5.0117 3.555,-2.1036 0,-6.3027 c -2.431,-1.4436 -4.956,-2.934 -7.107,-4.207 l 0,-2.1094 1.714,-1.0137 2.452,1.4512 c 1.301,-0.7303 2.398,-1.3706 3.66,-2.1113 l -1.096,-0.6485 c -1.06,-0.6265 -2.119,-1.2538 -3.178,-1.8808 l 0,-5.0098 z"/></g><text x="0" y="115" fill="#000000" font-size="5px" font-weight="bold" font-family="'Helvetica Neue', Helvetica, Arial-Unicode, Arial, Sans-serif">Created by P Thanga Vignesh</text><text x="0" y="120" fill="#000000" font-size="5px" font-weight="bold" font-family="'Helvetica Neue', Helvetica, Arial-Unicode, Arial, Sans-serif">from the Noun Project</text></svg>